<svg width="158" height="39" viewBox="0 0 158 39" fill="none" xmlns="http://www.w3.org/2000/svg">
<path d="M43.2685 30V9H56.8285V12.09H47.1085V17.97H54.9685V21H47.1085V30H43.2685ZM56.1568 30L63.8368 9H68.1568L75.8368 30H71.7568L70.0768 25.14H61.8868L60.1768 30H56.1568ZM62.9368 22.14H69.0268L65.9668 13.41L62.9368 22.14ZM78.542 30V9H86.252C87.932 9 89.312 9.29 90.392 9.87C91.492 10.43 92.312 11.2 92.852 12.18C93.392 13.14 93.662 14.21 93.662 15.39C93.662 16.67 93.322 17.84 92.642 18.9C91.982 19.96 90.942 20.73 89.522 21.21L93.872 30H89.462L85.562 21.72H82.382V30H78.542ZM82.382 18.9H86.012C87.292 18.9 88.232 18.59 88.832 17.97C89.432 17.35 89.732 16.53 89.732 15.51C89.732 14.51 89.432 13.71 88.832 13.11C88.252 12.51 87.302 12.21 85.982 12.21H82.382V18.9ZM97.2334 30V9H101.793L108.483 22.32L115.083 9H119.643V30H115.803V15.51L109.953 27H106.923L101.073 15.51V30H97.2334ZM123.718 30V9H137.428V12.09H127.558V17.85H136.528V20.85H127.558V26.91H137.428V30H123.718ZM146.491 30V22.53L139.441 9H143.791L148.441 18.69L153.061 9H157.351L150.331 22.53V30H146.491Z" fill="#9EA584"/>
<g clip-path="url(#clip0)">
<path d="M25.8946 11.0024H25.8935C25.587 11.0024 25.3389 11.251 25.3389 11.5576C25.3389 11.8643 25.5881 12.1129 25.8946 12.1129C26.2013 12.1129 26.4498 11.8643 26.4498 11.5576C26.4498 11.251 26.2014 11.0024 25.8946 11.0024Z" fill="#9EA584"/>
<path d="M30.7421 9.84724L26.0087 6.69163C25.8263 6.56999 25.612 6.50513 25.3927 6.50513H24.447C23.779 5.99108 22.8263 5.61602 21.5025 5.61602C21.4505 5.61602 21.3975 5.61656 21.3444 5.61775C21.0159 5.62497 20.7275 5.83787 20.6239 6.14957C20.6022 6.21486 20.0998 7.76584 20.813 9.13538C20.9189 9.3388 21.0445 9.52649 21.1892 9.69856C20.896 9.99604 20.4939 10.1696 20.0597 10.1696H5.76564C4.22393 10.1696 2.83425 10.8315 1.86455 11.8854C1.18006 10.001 2.54916 8.00611 3.38644 7.02133C3.59514 7.17379 3.82905 7.28606 4.07266 7.34348C4.20055 7.37354 4.32866 7.38841 4.4558 7.38841C4.91123 7.38841 5.3518 7.19792 5.70423 6.83946L5.77114 6.77115C6.11441 6.41958 6.17637 6.35622 7.07312 6.53152C7.35444 6.58669 7.6419 6.48261 7.82323 6.26163C8.00457 6.04053 8.04993 5.73777 7.94121 5.47326C7.52457 4.45874 6.14415 2.73236 3.90372 3.46103H3.90383C3.02032 3.74796 2.47503 4.5959 2.52847 5.48285C2.12669 5.90445 1.41763 6.72126 0.855099 7.76056C-0.280632 9.85877 -0.284618 11.8457 0.839799 13.5135C0.597806 14.1197 0.463233 14.7803 0.463233 15.472V28.0756C0.463233 29.5298 1.64637 30.713 3.10059 30.713H3.71129C5.16551 30.713 6.34865 29.5298 6.34865 28.0756V25.6953C8.47509 26.3469 12.4963 27.1296 16.9534 25.7065V28.0757C16.9534 29.5299 18.1365 30.7131 19.5907 30.7131H20.4348C21.7292 30.7131 22.8234 29.7863 23.0363 28.5092L24.3012 20.92C24.4756 19.8727 25.0244 18.9407 25.8514 18.2813L30.2758 16.4099C31.3232 15.9667 31.9999 14.9456 31.9999 13.8083V12.1975C31.9999 11.2509 31.5297 10.3723 30.7421 9.84724ZM4.38393 4.9395C4.38404 4.9395 4.38404 4.9395 4.38404 4.9395C4.58078 4.87561 4.76535 4.84339 4.94043 4.84339C5.17241 4.84339 5.38768 4.89985 5.59196 5.01427C5.21389 5.15003 4.94625 5.39051 4.65857 5.6853L4.59576 5.74941C4.49997 5.8467 4.45569 5.83636 4.42929 5.83033C4.36616 5.81546 4.29526 5.76859 4.23428 5.70761C4.22124 5.56398 4.17125 5.42305 4.08311 5.2999C4.10671 5.13732 4.21768 4.99348 4.38393 4.9395ZM5.76564 12.3905H12.1293C12.1856 12.4952 12.2401 12.6145 12.2818 12.7446C12.4584 13.2945 12.3233 13.7701 11.8568 14.2415C10.6431 15.4677 10.4977 16.3918 10.3913 17.0667C10.3259 17.4823 10.3015 17.6378 10.0401 17.8907C9.78806 18.1345 8.9845 18.4569 7.99164 18.5745C6.9991 18.6917 6.40403 18.5433 6.22485 18.436C6.03522 16.7988 4.73152 14.9605 2.9393 14.2458C3.41434 13.1551 4.50213 12.3905 5.76564 12.3905ZM29.4105 14.3644L24.8539 16.2917C24.7708 16.3269 24.6923 16.372 24.6201 16.4261C23.2777 17.4331 22.3865 18.8994 22.1104 20.5546V20.5547L20.8455 28.1439C20.8119 28.3456 20.6392 28.492 20.4347 28.492H19.5906C19.361 28.492 19.1742 28.3052 19.1742 28.0756V24.1058C19.1742 23.7319 18.9861 23.3831 18.6736 23.1779C18.4897 23.057 18.2772 22.9954 18.0637 22.9954C17.9143 22.9954 17.7645 23.0255 17.6233 23.0864C11.5074 25.7292 5.76543 23.1263 5.71037 23.1007C5.36634 22.9392 4.96349 22.9648 4.64284 23.1684C4.32198 23.372 4.12761 23.7257 4.12761 24.1058V28.0756C4.12761 28.3052 3.94078 28.492 3.71118 28.492H3.10049C2.87088 28.492 2.68406 28.3052 2.68406 28.0756V16.3555C3.53125 16.8997 4.16554 17.8788 4.24311 18.7026C4.31358 19.4528 4.82579 20.0574 5.6482 20.3615C6.10956 20.532 6.68341 20.6106 7.29496 20.6104C8.83797 20.6104 10.6199 20.1105 11.4296 19.3273C12.1718 18.6093 12.2793 17.9263 12.3657 17.3777C12.4471 16.8614 12.5172 16.4156 13.2772 15.6476C14.3257 14.5882 14.4912 13.4017 14.2537 12.3905H20.0595C21.2945 12.3905 22.4218 11.8056 23.1315 10.8323C23.1523 10.8341 23.1731 10.8369 23.1938 10.8369C23.5288 10.8369 23.8379 10.6186 23.9384 10.2812C24.0609 9.86976 23.8267 9.43695 23.4153 9.31434C22.8164 9.13592 22.4174 8.84511 22.1957 8.42502C21.9804 8.01732 21.9634 7.54917 21.9963 7.19447C23.9552 7.39337 24.2284 8.76528 24.2554 8.94208C24.3123 9.36379 24.6984 9.66052 25.1221 9.60913C25.3947 9.57508 25.616 9.40334 25.7265 9.17276L29.51 11.6951C29.6783 11.8073 29.7788 11.9951 29.7788 12.1975V12.2825C29.6861 12.2132 29.5724 12.1707 29.4478 12.1707H29.4467C29.1402 12.1707 28.8921 12.4193 28.8921 12.7259C28.8921 13.0326 29.1413 13.2812 29.4478 13.2812C29.5724 13.2812 29.6861 13.2387 29.7788 13.1694V13.8085C29.779 14.0514 29.6344 14.2697 29.4105 14.3644Z" fill="#9EA584"/>
</g>
<defs>
<clipPath id="clip0">
<rect width="32" height="32" fill="white" transform="translate(0 1)"/>
</clipPath>
</defs>
</svg>
