<svg width="48" height="48" viewBox="0 0 48 48" fill="none" xmlns="http://www.w3.org/2000/svg">
<path fill-rule="evenodd" clip-rule="evenodd" d="M2.56706 8.20562C1.24116 9.96862 0.156281 11.4569 0.156281 11.5128C0.156281 11.5686 1.24116 13.0569 2.56706 14.8199L4.97794 18.0255L5.33184 17.7634C5.52647 17.6193 6.02925 17.2488 6.44916 16.94C6.86906 16.6312 7.21397 16.3401 7.21566 16.293C7.21734 16.246 6.66984 15.4775 5.99906 14.5853L4.77938 12.9631H24.9834H45.1875V26.5312V40.0992H24H2.8125V29.9934V19.8875H1.40625H0V31.4438V43H24H48V26.5312V10.0624H26.3897H4.77938L5.99906 8.4402C6.66984 7.54799 7.21734 6.77957 7.21566 6.7325C7.21397 6.68543 6.86906 6.39433 6.44916 6.08554C6.02925 5.77675 5.52647 5.4062 5.33184 5.2621L4.97794 5L2.56706 8.20562ZM11.3128 15.7388C11.2783 15.7733 11.249 16.2261 11.2477 16.7451C11.2464 17.264 11.2028 17.8732 11.1506 18.0989C10.8855 19.2467 9.97772 20.3796 8.90625 20.8997C8.24212 21.2221 7.39256 21.3798 6.30469 21.3828L5.625 21.3847V26.578V31.7713H6.70612C7.55241 31.7713 7.91269 31.8135 8.36512 31.9656C9.76472 32.4362 10.7399 33.476 11.1226 34.906C11.1914 35.1633 11.2483 35.8264 11.2489 36.3797L11.25 37.3856H24H36.75L36.7511 36.3797C36.7517 35.8264 36.8086 35.1633 36.8774 34.906C37.2601 33.476 38.2353 32.4362 39.6349 31.9656C40.0873 31.8135 40.4476 31.7713 41.2939 31.7713H42.375V26.5923V21.4132L41.2734 21.3561C40.6676 21.3247 39.9578 21.2346 39.6962 21.1559C38.5815 20.8208 37.4644 19.7852 37.0262 18.6807C36.8659 18.2766 36.805 17.8776 36.7607 16.94L36.7031 15.7235L24.0394 15.6998C17.0743 15.6868 11.3474 15.7043 11.3128 15.7388ZM39.5313 15.7392C39.4969 15.7734 39.4688 16.4261 39.4688 17.1895V18.5775H40.9219H42.375V17.1271V15.6767H40.9844C40.2195 15.6767 39.5656 15.7048 39.5313 15.7392ZM34.163 19.1623C34.454 20.2098 35.0305 21.1639 35.9062 22.0467C36.815 22.9629 37.5751 23.4547 38.6637 23.8309L39.4219 24.0929L39.4468 26.5572L39.4718 29.0215L39.0134 29.1388C36.7842 29.709 34.6813 31.8197 34.1181 34.0525L34.009 34.4849H24H13.991L13.8819 34.0525C13.3187 31.8197 11.2158 29.709 8.98659 29.1388L8.52825 29.0215L8.55319 26.5572L8.57812 24.0929L9.33628 23.8309C11.4832 23.089 13.2563 21.2455 13.8407 19.1475L13.9995 18.5775H24H34.0005L34.163 19.1623ZM22.647 21.528C20.9215 22.0007 19.4365 23.4796 18.9852 25.1748C18.7876 25.9174 18.7879 27.2262 18.986 27.9112C19.4865 29.642 20.8858 31.033 22.6406 31.5443C23.4253 31.7729 24.7058 31.7539 25.5 31.5018C27.1786 30.969 28.4488 29.6993 28.9747 28.0284C29.212 27.2739 29.2303 25.982 29.0151 25.1748C28.5567 23.4567 27.0698 21.9906 25.3118 21.5236C24.6773 21.3552 23.2698 21.3575 22.647 21.528ZM25.0214 24.4694C25.8142 24.8774 26.2807 25.6361 26.2893 26.5312C26.3074 28.4139 24.2256 29.4911 22.6543 28.412C21.2852 27.4718 21.435 25.2783 22.9219 24.4957C23.5664 24.1565 24.3933 24.1461 25.0214 24.4694ZM5.625 35.9353V37.3856H7.07812H8.53125V35.9353V34.4849H7.07812H5.625V35.9353ZM39.4688 35.9353V37.3856H40.9219H42.375V35.9353V34.4849H40.9219H39.4688V35.9353Z" fill="white"/>
<path fill-rule="evenodd" clip-rule="evenodd" d="M11.3128 15.7388C11.2783 15.7733 11.249 16.2261 11.2477 16.7451C11.2464 17.264 11.2028 17.8732 11.1506 18.0989C10.8855 19.2467 9.97772 20.3796 8.90625 20.8997C8.24212 21.2221 7.39256 21.3798 6.30469 21.3828L5.625 21.3847V26.578V31.7713H6.70612C7.55241 31.7713 7.91269 31.8135 8.36512 31.9656C9.76472 32.4362 10.7399 33.476 11.1226 34.906C11.1914 35.1633 11.2483 35.8264 11.2489 36.3797L11.25 37.3856H24H36.75L36.7511 36.3797C36.7517 35.8264 36.8086 35.1633 36.8774 34.906C37.2601 33.476 38.2353 32.4362 39.6349 31.9656C40.0873 31.8135 40.4476 31.7713 41.2939 31.7713H42.375V26.5923V21.4132L41.2734 21.3562C40.6676 21.3247 39.9578 21.2346 39.6962 21.1559C38.5815 20.8208 37.4644 19.7852 37.0262 18.6807C36.8659 18.2766 36.805 17.8776 36.7607 16.94L36.7031 15.7235L24.0394 15.6998C17.0743 15.6868 11.3474 15.7043 11.3128 15.7388ZM39.5313 15.7392C39.4969 15.7734 39.4688 16.4261 39.4688 17.1896V18.5775H40.9219H42.375V17.1271V15.6768H40.9844C40.2195 15.6768 39.5656 15.7048 39.5313 15.7392ZM34.163 19.1623C34.454 20.2098 35.0305 21.1639 35.9062 22.0467C36.815 22.9629 37.5751 23.4547 38.6637 23.8309L39.4219 24.0929L39.4468 26.5572L39.4718 29.0216L39.0134 29.1388C36.7842 29.709 34.6813 31.8198 34.1181 34.0525L34.009 34.4849H24H13.991L13.8819 34.0525C13.3187 31.8198 11.2158 29.709 8.98659 29.1388L8.52825 29.0216L8.55319 26.5572L8.57812 24.0929L9.33628 23.8309C11.4832 23.089 13.2563 21.2456 13.8407 19.1476L13.9995 18.5775H24H34.0005L34.163 19.1623ZM22.647 21.5281C20.9215 22.0007 19.4365 23.4796 18.9852 25.1748C18.7876 25.9174 18.7879 27.2263 18.986 27.9112C19.4865 29.642 20.8858 31.033 22.6406 31.5443C23.4253 31.7729 24.7058 31.7539 25.5 31.5018C27.1786 30.969 28.4488 29.6993 28.9747 28.0284C29.212 27.2739 29.2303 25.982 29.0151 25.1748C28.5567 23.4567 27.0698 21.9906 25.3118 21.5237C24.6773 21.3552 23.2698 21.3575 22.647 21.5281ZM25.0214 24.4694C25.8142 24.8774 26.2807 25.6361 26.2893 26.5312C26.3074 28.4139 24.2256 29.4911 22.6543 28.412C21.2852 27.4718 21.435 25.2784 22.9219 24.4957C23.5664 24.1565 24.3933 24.1461 25.0214 24.4694ZM5.625 35.9353V37.3856H7.07812H8.53125V35.9353V34.4849H7.07812H5.625V35.9353ZM39.4688 35.9353V37.3856H40.9219H42.375V35.9353V34.4849H40.9219H39.4688V35.9353Z" fill="#D2D2D4"/>
</svg>
