<svg width="48" height="48" viewBox="0 0 48 48" fill="none" xmlns="http://www.w3.org/2000/svg">
<path fill-rule="evenodd" clip-rule="evenodd" d="M6.96875 19.7812V39.5625H5.98438H5V43.7812V48H21.2197H37.4395L37.415 43.8047L37.3906 39.6094L36.3828 39.5827L35.375 39.5561V38.0692V36.5822L35.9609 36.7674C36.7535 37.0179 37.9321 37.0146 38.75 36.7594C40.2482 36.2918 41.4816 35.0633 41.9389 33.5828C42.1198 32.997 42.125 32.6894 42.125 22.4942V12.0082L40.429 8.72287L38.7329 5.4375H37.054H35.375V2.71875V0H21.1719H6.96875V19.7812ZM32.5625 21.1875V39.5625H21.1719H9.78125V21.1875V2.8125H21.1719H32.5625V21.1875ZM38.1641 10.5832L39.3125 12.8198V13.6775V14.5351L37.3672 14.5097L35.4219 14.4844L35.3971 11.4141L35.3725 8.34375L36.194 8.34516L37.0156 8.34656L38.1641 10.5832ZM39.2912 25.0078C39.266 32.5723 39.2631 32.6768 39.0699 33.0469C38.3451 34.4354 36.3701 34.4457 35.632 33.0649L35.4219 32.6719L35.3958 25.0078L35.3698 17.3438H37.3433H39.3167L39.2912 25.0078ZM34.5312 43.8281V45.1875H21.1719H7.8125V43.8281V42.4688H21.1719H34.5312V43.8281Z" fill="#212126"/>
<path fill-rule="evenodd" clip-rule="evenodd" d="M12.5 10.1719V15.0938H21.2656H30.0312V10.1719V5.25H21.2656H12.5V10.1719ZM14.25 24.9063C14.2156 24.9406 14.1875 25.5945 14.1875 26.3594V27.75H15.5938H17V26.2969V24.8438H15.6563C14.9172 24.8438 14.2843 24.8719 14.25 24.9063ZM19.7188 26.3594C19.7188 25.5945 19.748 24.9396 19.7836 24.9038C19.8193 24.8681 20.4627 24.8506 21.2133 24.8647L22.5781 24.8906L22.604 26.3203L22.6299 27.75H21.1743H19.7188V26.3594ZM25.3438 26.2969V27.75H26.75H28.1562V26.2969V24.8438H26.75H25.3438V26.2969ZM27.2188 8.0625H15.3125V12.2812H27.2188V8.0625Z" fill="#D2D2D4"/>
</svg>
